<svg xmlns="http://www.w3.org/2000/svg" width="24.97" height="25" viewBox="0 0 24.97 25">
  <defs>
    <style>
      .cls-1 {
        fill: #a53692;
        fill-rule: evenodd;
      }
    </style>
  </defs>
  <path id="Фигура_1" data-name="Фигура 1" class="cls-1" d="M1392.77,49.486a2.461,2.461,0,0,0-1.79-.818,2.527,2.527,0,0,0-1.8.812l-1.67,1.663c-0.14-.075-0.28-0.143-0.41-0.212-0.19-.094-0.37-0.184-0.52-0.279a17.984,17.984,0,0,1-4.35-3.957,10.649,10.649,0,0,1-1.43-2.248c0.43-.4.84-0.807,1.23-1.2,0.14-.148.29-0.3,0.44-0.448a2.418,2.418,0,0,0,0-3.651l-1.44-1.44c-0.17-.164-0.34-0.333-0.49-0.5-0.32-.327-0.65-0.665-1-0.982a2.49,2.49,0,0,0-1.77-.775,2.57,2.57,0,0,0-1.79.775c-0.01.006-.01,0.006-0.01,0.01l-1.8,1.81a3.869,3.869,0,0,0-1.15,2.453,9.322,9.322,0,0,0,.68,3.915,22.533,22.533,0,0,0,4.04,6.733,24.926,24.926,0,0,0,8.28,6.474,12.952,12.952,0,0,0,4.65,1.372c0.11,0.005.23,0.01,0.33,0.01a3.982,3.982,0,0,0,3.05-1.308,0.047,0.047,0,0,0,.02-0.026c0.28-.332.6-0.633,0.93-0.955q0.345-.324.69-0.68a2.636,2.636,0,0,0,.79-1.826,2.544,2.544,0,0,0-.81-1.809Zm1.89,5.557c-0.01,0-.01,0,0,0-0.21.221-.42,0.422-0.64,0.643a11.6,11.6,0,0,0-1.02,1.056,2.573,2.573,0,0,1-1.99.839c-0.08,0-.16,0-0.24,0a11.554,11.554,0,0,1-4.13-1.235,23.419,23.419,0,0,1-7.79-6.1,21.307,21.307,0,0,1-3.81-6.326,7.53,7.53,0,0,1-.59-3.3,2.4,2.4,0,0,1,.73-1.567l1.8-1.8a1.2,1.2,0,0,1,.8-0.374,1.093,1.093,0,0,1,.77.369,0.034,0.034,0,0,1,.02.016c0.32,0.3.63,0.612,0.95,0.944,0.17,0.168.33,0.338,0.5,0.512l1.45,1.441a1.006,1.006,0,0,1,0,1.635c-0.16.153-.31,0.306-0.46,0.454-0.44.454-.86,0.876-1.32,1.288a0.04,0.04,0,0,0-.03.026,1.078,1.078,0,0,0-.28,1.2c0.01,0.016.01,0.032,0.02,0.048a11.521,11.521,0,0,0,1.71,2.781v0.005a19.524,19.524,0,0,0,4.69,4.263c0.22,0.137.44,0.248,0.65,0.354,0.19,0.1.37,0.184,0.53,0.279,0.02,0.011.04,0.027,0.06,0.037a1.087,1.087,0,0,0,1.33-.232l1.8-1.8a1.209,1.209,0,0,1,.8-0.4,1.063,1.063,0,0,1,.76.385c0.01,0.006.01,0.006,0.01,0.011l2.91,2.907A1.039,1.039,0,0,1,1394.66,55.043Zm-8.15-15.1a6.789,6.789,0,0,1,5.54,5.53,0.71,0.71,0,0,0,.7.591,0.869,0.869,0,0,0,.12-0.011,0.712,0.712,0,0,0,.59-0.823,8.224,8.224,0,0,0-6.7-6.691,0.709,0.709,0,0,0-.82.581A0.7,0.7,0,0,0,1386.51,39.947Zm11.48,5.081a13.54,13.54,0,0,0-11.03-11.017,0.712,0.712,0,0,0-.24,1.4,12.067,12.067,0,0,1,9.86,9.846,0.713,0.713,0,0,0,.71.591,0.934,0.934,0,0,0,.12-0.01A0.7,0.7,0,0,0,1397.99,45.028Z" transform="translate(-1373.03 -34)"/>
</svg>
