<svg xmlns="http://www.w3.org/2000/svg" width="17" height="16" viewBox="0 0 17 16">
  <defs>
    <style>
      .cls-1 {
        fill: #61afd0;
        fill-rule: evenodd;
      }
    </style>
  </defs>
  <path id="Фигура_1" data-name="Фигура 1" class="cls-1" d="M263.2,124.84a0.483,0.483,0,0,0-.49.491v6.7h-3.474V129.3a0.485,0.485,0,0,0-.473-0.482h-2.512a0.5,0.5,0,0,0-.5.482v2.738h-3.465v-6.482a0.481,0.481,0,0,0-.962,0v6.972a0.477,0.477,0,0,0,.472.474h4.454a0.476,0.476,0,0,0,.472-0.474v-2.737h1.55v2.737a0.481,0.481,0,0,0,.49.474H263.2a0.477,0.477,0,0,0,.472-0.474v-7.2A0.479,0.479,0,0,0,263.2,124.84Zm2.663,0.382L262,121.336v-2.65a0.49,0.49,0,0,0-.5-0.489,0.479,0.479,0,0,0-.472.489v1.678l-3.189-3.212a0.469,0.469,0,0,0-.33-0.152,0.484,0.484,0,0,0-.347.152l-8.009,8.017a0.479,0.479,0,0,0,.677.678l7.679-7.669,7.662,7.741a0.471,0.471,0,0,0,.347.126,0.536,0.536,0,0,0,.347-0.126A0.506,0.506,0,0,0,265.861,125.222Z" transform="translate(-249 -117)"/>
</svg>
