<svg width="49" height="49" viewBox="0 0 49 49" fill="none" xmlns="http://www.w3.org/2000/svg">
<path fill-rule="evenodd" clip-rule="evenodd" d="M24 1C36.702 1 47 11.297 47 24C47 36.703 36.702 47 24 47C11.297 47 1 36.703 1 24C1 11.297 11.297 1 24 1Z" stroke="white" stroke-width="2"/>
<path d="M30.4179 9.71173H17.5774C13.4006 9.71173 10 13.0609 10 17.1745V29.8209C10 33.9344 13.4006 37.2836 17.5774 37.2836H30.4179C34.5947 37.2836 37.9953 33.9344 37.9953 29.8209V17.1745C38 13.0609 34.5994 9.71173 30.4179 9.71173ZM36.3585 29.8255C36.3585 33.0497 33.6963 35.6716 30.4226 35.6716H17.5821C14.3084 35.6716 11.6462 33.0497 11.6462 29.8255V17.1791C11.6462 13.955 14.3084 11.3331 17.5821 11.3331H30.4226C33.6963 11.3331 36.3585 13.955 36.3585 17.1791V29.8255Z" fill="white"/>
<path d="M23.9977 15.9608C19.7739 15.9608 16.3403 19.3424 16.3403 23.5023C16.3403 27.6622 19.7739 31.0438 23.9977 31.0438C28.2214 31.0438 31.655 27.6622 31.655 23.5023C31.655 19.3424 28.2214 15.9608 23.9977 15.9608ZM23.9977 29.4225C20.6817 29.4225 17.9819 26.7635 17.9819 23.4977C17.9819 20.2319 20.6817 17.5729 23.9977 17.5729C27.3136 17.5729 30.0134 20.2319 30.0134 23.4977C30.0134 26.7681 27.3136 29.4225 23.9977 29.4225Z" fill="white"/>
<path d="M31.8384 13.2833C30.592 13.2833 29.576 14.2839 29.576 15.5115C29.576 16.739 30.592 17.7396 31.8384 17.7396C33.0848 17.7396 34.1008 16.739 34.1008 15.5115C34.1008 14.2839 33.0848 13.2833 31.8384 13.2833ZM31.8384 16.1229C31.495 16.1229 31.2175 15.8496 31.2175 15.5115C31.2175 15.1733 31.495 14.9 31.8384 14.9C32.1818 14.9 32.4593 15.1733 32.4593 15.5115C32.4593 15.845 32.1818 16.1229 31.8384 16.1229Z" fill="white"/>
</svg>
