<svg width="26" height="12" viewBox="0 0 26 12" fill="none" xmlns="http://www.w3.org/2000/svg">
<path d="M25 5L3.27592 4.89558L6.75029 1.42099C7.05466 1.11679 7.05466 0.623324 6.75029 0.319172C6.44591 0.0147947 5.95244 0.0147947 5.64852 0.319172L0.844005 5.12377C0.539628 5.42797 0.539628 5.92148 0.844005 6.22559L5.64852 11.0304C5.80066 11.1826 6.00005 11.2587 6.1994 11.2587C6.39875 11.2587 6.59814 11.1826 6.75029 11.0304C7.05466 10.7262 7.05466 10.2328 6.75029 9.92864L3.27592 6.45387L25 6.5C25.4303 6.5 26 6.23029 26 5.8C26 5.36971 25.4303 5 25 5Z" fill="#77D5FA"/>
</svg>
