<svg xmlns="http://www.w3.org/2000/svg" width="20" height="23" viewBox="0 0 20 23">
  <metadata><?xpacket begin="﻿" id="W5M0MpCehiHzreSzNTczkc9d"?>
<x:xmpmeta xmlns:x="adobe:ns:meta/" x:xmptk="Adobe XMP Core 5.6-c138 79.159824, 2016/09/14-01:09:01        ">
   <rdf:RDF xmlns:rdf="http://www.w3.org/1999/02/22-rdf-syntax-ns#">
      <rdf:Description rdf:about=""/>
   </rdf:RDF>
</x:xmpmeta>
                                                                                                    
                                                                                                    
                                                                                                    
                                                                                                    
                                                                                                    
                                                                                                    
                                                                                                    
                                                                                                    
                                                                                                    
                                                                                                    
                                                                                                    
                                                                                                    
                                                                                                    
                                                                                                    
                                                                                                    
                                                                                                    
                                                                                                    
                                                                                                    
                                                                                                    
                                                                                                    
                           
<?xpacket end="w"?></metadata>
<defs>
    <style>
      .cls-1 {
        fill: #77d5fa;
        fill-rule: evenodd;
      }
    </style>
  </defs>
  <path id="Фигура_930" data-name="Фигура 930" class="cls-1" d="M679.885,1402l-4.448,4.59c-0.443.45-.345,0.76,0.274,0.76h2.483v5.58a1.717,1.717,0,0,0,1.691,1.74h0a1.717,1.717,0,0,0,1.691-1.74v-5.58h2.484c0.618,0,.716-0.31.273-0.76Zm9.688,11.24h-2.557a0.425,0.425,0,0,0-.423.43v7.82H673.406v-7.82a0.425,0.425,0,0,0-.423-0.43h-2.557a0.425,0.425,0,0,0-.422.43v8.92a2.375,2.375,0,0,0,2.335,2.41H687.66a2.375,2.375,0,0,0,2.335-2.41v-8.92A0.424,0.424,0,0,0,689.573,1413.24Z" transform="translate(-670 -1402)"/>
</svg>
