<svg width="46" height="54" viewBox="0 0 46 54" fill="none" xmlns="http://www.w3.org/2000/svg">
<g clip-path="url(#clip0)">
<g filter="url(#filter0_d)">
<path fill-rule="evenodd" clip-rule="evenodd" d="M8.91698 5.25L12.617 1.47998L11.17 0L4.99398 6.29004L11.178 12.5901L12.627 11.1201L8.91698 7.34009V5.25V5.25ZM35.823 0L34.373 1.47998L38.073 5.25V7.34009L34.361 11.1201L35.81 12.5901L41.996 6.29004L35.823 0ZM39.457 25.8201C39.3761 25.7412 39.2873 25.6709 39.192 25.6101C37.6258 24.6047 35.7604 24.171 33.9113 24.3823C32.0622 24.5937 30.3429 25.4371 29.044 26.77L27.595 28.25V8.37988C27.595 7.2925 27.163 6.24986 26.3941 5.48096C25.6252 4.71206 24.5824 4.28003 23.495 4.28003C22.4076 4.28003 21.3647 4.71206 20.5958 5.48096C19.8269 6.24986 19.395 7.2925 19.395 8.37988V17.5701C18.7541 16.7482 17.8178 16.2088 16.7854 16.0669C15.7529 15.9249 14.7058 16.1916 13.867 16.8101L5.03899 22.02C4.41491 22.3906 3.89835 22.9177 3.54039 23.5491C3.18243 24.1805 2.99546 24.8943 2.99797 25.6201V32.48C2.98135 34.2392 3.31149 35.9844 3.96947 37.616C4.62745 39.2476 5.6004 40.7335 6.83278 41.989C8.06516 43.2445 9.53282 44.2452 11.1519 44.9333C12.771 45.6215 14.5098 45.9839 16.269 46C19.6892 45.9959 22.9719 44.6536 25.415 42.26V42.28L25.642 42.04C25.642 42.04 25.65 42.04 25.652 42.03L39.452 27.97C39.7335 27.6833 39.8916 27.2978 39.8926 26.896C39.8935 26.4942 39.7372 26.1081 39.457 25.8201V25.8201ZM24 40.75C21.9354 42.7739 19.1601 43.9082 16.269 43.9099C13.2666 43.8782 10.3994 42.6573 8.29604 40.5146C6.1927 38.3719 5.025 35.4824 5.049 32.48V25.6101C5.0495 25.2495 5.1446 24.8951 5.32482 24.5828C5.50503 24.2704 5.76403 24.011 6.07598 23.8301L15.062 18.51C15.2669 18.3537 15.5007 18.2396 15.7499 18.1741C15.9991 18.1086 16.2588 18.0931 16.5141 18.1284C16.7693 18.1637 17.0151 18.2492 17.2372 18.3799C17.4592 18.5106 17.6532 18.6838 17.808 18.8899L19.628 21.1599C19.7603 21.3257 19.9413 21.4458 20.1455 21.5032C20.3496 21.5606 20.5667 21.5525 20.766 21.48C20.9668 21.4071 21.1401 21.2737 21.2619 21.0981C21.3837 20.9226 21.448 20.7136 21.446 20.5V8.37988C21.446 7.83619 21.662 7.31487 22.0464 6.93042C22.4309 6.54597 22.9523 6.33008 23.496 6.33008C24.0397 6.33008 24.5611 6.54597 24.9455 6.93042C25.33 7.31487 25.546 7.83619 25.546 8.37988V29.26C25.5457 29.6768 25.6711 30.0839 25.9059 30.4282C26.1407 30.7726 26.4739 31.038 26.862 31.1899C27.024 31.2516 27.2005 31.2646 27.3698 31.2273C27.5391 31.19 27.6939 31.104 27.815 30.98L30.493 28.25C31.3829 27.3379 32.5375 26.7292 33.7929 26.5103C35.0483 26.2913 36.3408 26.4731 37.487 27.03L24 40.75Z" fill="#77D5FA"/>
</g>
</g>
<defs>
<filter id="filter0_d" x="-1.00262" y="0" width="46.9986" height="54" filterUnits="userSpaceOnUse" color-interpolation-filters="sRGB">
<feFlood flood-opacity="0" result="BackgroundImageFix"/>
<feColorMatrix in="SourceAlpha" type="matrix" values="0 0 0 0 0 0 0 0 0 0 0 0 0 0 0 0 0 0 127 0"/>
<feOffset dy="4"/>
<feGaussianBlur stdDeviation="2"/>
<feColorMatrix type="matrix" values="0 0 0 0 0 0 0 0 0 0 0 0 0 0 0 0 0 0 0.17 0"/>
<feBlend mode="normal" in2="BackgroundImageFix" result="effect1_dropShadow"/>
<feBlend mode="normal" in="SourceGraphic" in2="effect1_dropShadow" result="shape"/>
</filter>
<clipPath id="clip0">
<rect width="46" height="54" fill="white"/>
</clipPath>
</defs>
</svg>
