<svg xmlns="http://www.w3.org/2000/svg" width="44.938" height="38" viewBox="0 0 44.938 38">
  <defs>
    <style>
      .cls-1 {
        fill: #fff;
        fill-rule: evenodd;
        opacity: 0.5;
      }
    </style>
  </defs>
  <path id="Фигура_820" data-name="Фигура 820" class="cls-1" d="M706.093,6955.15l-41.115,16.07a1.51,1.51,0,0,0,.12,2.85l10.448,3.09,3.9,12.42a1.8,1.8,0,0,0,2.993.72l5.4-5.54,10.6,7.81a2.213,2.213,0,0,0,3.473-1.34l7.02-33.67A2.117,2.117,0,0,0,706.093,6955.15Zm-5.155,7.47-19.1,16.95a1,1,0,0,0-.34.65l-0.736,6.56a0.2,0.2,0,0,1-.385.04l-3.026-9.78a1.028,1.028,0,0,1,.44-1.18l22.552-14.04A0.5,0.5,0,0,1,700.938,6962.62Z" transform="translate(-664.031 -6955)"/>
</svg>
